<?xml version="1.0" encoding="utf-8"?>
<!-- Generator: Adobe Illustrator 27.3.1, SVG Export Plug-In . SVG Version: 6.00 Build 0)  -->
<svg version="1.1" id="Layer_1" xmlns="http://www.w3.org/2000/svg" xmlns:xlink="http://www.w3.org/1999/xlink" x="0px" y="0px"
	 viewBox="0 0 78.07 54.15" style="enable-background:new 0 0 78.07 54.15;" xml:space="preserve">
<style type="text/css">
	.st0{fill:#6B922D;}
</style>
<g id="XMLID_316_">
	<g id="XMLID_1512_">
		<rect id="XMLID_1513_" x="1.66" y="28.55" class="st0" width="74.42" height="3.92"/>
	</g>
	<g id="XMLID_1510_">
		<rect id="XMLID_1511_" x="1.66" y="8.97" class="st0" width="74.42" height="3.92"/>
	</g>
	<g id="XMLID_1508_">
		<rect id="XMLID_1509_" x="1.66" y="48.13" class="st0" width="74.42" height="3.92"/>
	</g>
	<path id="XMLID_1490_" class="st0" d="M19.82,13.09H13.4c-3.11,0-5.66-2.55-5.66-5.66v0c0-3.11,2.55-5.66,5.66-5.66h6.43
		c3.11,0,5.66,2.55,5.66,5.66v0C25.48,10.54,22.94,13.09,19.82,13.09z"/>
	<path id="XMLID_1487_" class="st0" d="M60.84,33.17h-6.43c-3.11,0-5.66-2.55-5.66-5.66v0c0-3.11,2.55-5.66,5.66-5.66h6.43
		c3.11,0,5.66,2.55,5.66,5.66v0C66.5,30.62,63.95,33.17,60.84,33.17z"/>
	<path id="XMLID_317_" class="st0" d="M35.99,51.58h-6.43c-3.11,0-5.66-2.55-5.66-5.66v0c0-3.11,2.55-5.66,5.66-5.66h6.43
		c3.11,0,5.66,2.55,5.66,5.66v0C41.65,49.04,39.1,51.58,35.99,51.58z"/>
</g>
</svg>
